<!-- Generated by IcoMoon.io -->
<svg version="1.1" xmlns="http://www.w3.org/2000/svg" width="118" height="32" viewBox="0 0 118 32">
<path fill="#FFFFFF" d="M3.551 0v25.546h-3.551v-25.546z"></path>
<path fill="#FFFFFF" d="M10.625 0v25.546h-3.551v-25.546z"></path>
<path fill="#FFFFFF" d="M17.699 0v25.546h-3.551v-25.546z"></path>
<path fill="#FFFFFF" d="M24.773 0v25.546h-3.551v-25.546z"></path>
<path fill="#FFFFFF" d="M31.847 0v25.546h-3.551v-25.546z"></path>
<path fill="#FFFFFF" d="M38.921 0v25.546h-3.551v-25.546z"></path>
<path fill="#FFFFFF" d="M103.437 32h3.549l10.467-24.018h-3.549l-5.034 12.172-5.469-12.172h-3.694l7.425 15.928-3.694 8.090zM97.158 25.86h1.376v-2.781h-0.688c-1.050 0-1.594-0.433-1.594-1.589v-21.093h-3.368v21.309c0 2.564 1.376 4.154 4.274 4.154zM84.109 2.131c0 1.156 0.761 2.203 2.173 2.203s2.209-1.048 2.209-2.203c0-1.119-0.797-2.131-2.209-2.131s-2.173 1.011-2.173 2.131zM84.616 25.86h3.404v-17.878h-3.404v17.878zM64.497 16.903c0-4.045 2.318-6.646 5.939-6.646 3.549 0 6.012 2.636 6.012 6.646 0 4.081-2.463 6.682-6.012 6.682-3.622 0-5.939-2.637-5.939-6.682zM69.857 26.402c3.984 0 6.048-2.492 6.447-3.142v2.6h3.296v-17.878h-3.296v2.348c-0.869-1.228-2.97-2.889-6.483-2.889-5.324 0-8.801 4.009-8.801 9.463 0 5.598 3.513 9.499 8.837 9.499zM42.444 14.411h4.781l7.533 11.449h4.419l-7.895-11.485c3.767-0.217 7.171-2.709 7.171-6.935 0-4.334-3.404-7.043-7.823-7.043h-8.185v3.070h7.642c3.006 0 4.6 1.481 4.6 3.973s-1.594 3.973-4.6 3.973h-7.642v2.998z"></path>
</svg>
